<link rel="stylesheet" href="/assets/shredder.module.css">
<svg width="500" height="500" viewBox="0 0 500 500" fill="none" xmlns="http://www.w3.org/2000/svg">
<g id="Frame 16" clip-path="url(#clip0_19_10)">
<g id="GBP">
<circle id="Ellipse 2" cx="255" cy="89" r="67" fill="#D8B811"/>
<g id="Ellipse 1">
<circle cx="244" cy="89" r="67" fill="#FFDD28"/>
<circle cx="244" cy="89" r="67" stroke="#BEC104"/>
</g>
<path id="&#194;&#163;" d="M241.964 87.124H248.156V95.38H241.964V101.572H260.712V110.86H227V101.572H232.16V95.38H227V87.124H232.16V81.964C232.16 77.0907 233.507 73.3927 236.202 70.87C238.954 68.29 242.537 67 246.952 67C249.073 67 251.051 67.344 252.886 68.032C254.721 68.6627 256.269 69.6087 257.53 70.87C258.849 72.1313 259.881 73.6793 260.626 75.514C261.371 77.3487 261.744 79.4413 261.744 81.792V83.34H251.94V81.62C251.94 80.244 251.567 79.0113 250.822 77.922C250.077 76.8327 248.787 76.288 246.952 76.288C245.117 76.288 243.827 76.8327 243.082 77.922C242.337 79.0113 241.964 80.244 241.964 81.62V87.124Z" fill="black"/>
</g>
<g id="CRYPTO">
<g id="Group 2" opacity="0.6" filter="url(#filter0_f_19_10)">
<path id="Vector 1" d="M220.472 376.657C216.006 358.227 219.978 336.766 244.367 336.766C247.751 328.358 252.58 330.313 257.011 324.117C259.02 321.309 262.885 320.712 265.247 318.388C268.37 315.316 269.817 311.102 273.135 308.01C280.891 300.781 313.673 294.998 315.243 309.631C317.892 334.318 306.598 365.153 330.323 382.711C348.882 396.446 379.619 408.535 386.583 431.251C393.375 453.405 383.914 476.658 373.359 496.331C364.705 512.46 350.105 525.519 329.859 525.519C322.839 525.519 311.183 526.472 311.183 517.736C311.183 489.191 302.526 457.148 271.511 446.71C241.737 436.69 227.059 403.846 220.472 376.657Z" fill="#07B2E7"/>
<path id="Vector 2" d="M178.561 286.167C191.796 289.108 193.469 310.548 206.466 310.548C208.928 310.548 210.049 308.475 212.604 309.752C215.651 311.276 216.025 315.384 219.765 317.254C225.311 320.027 229.226 321.801 235.565 321.801C238.535 321.801 242.428 321.048 244.772 323.392C246.594 325.214 245.834 327.436 246.932 329.474C250.807 336.67 264.069 340.31 270.461 344.421C279.758 350.4 298.272 362.685 290.58 376.532C284.742 387.039 270.606 389.982 262.391 398.299C255.577 405.197 258.967 411.154 263.527 418.304C271.685 431.094 287.577 435.871 298.537 445.812C302.67 449.561 301.421 449.676 297.173 449.676C283.747 449.676 269.943 451.674 259.322 460.702C249.8 468.795 248.571 481.721 245.34 492.983C243.805 498.338 241.423 502.908 236.474 498.553C225.955 489.296 217.808 478.027 206.58 469.227C196.921 461.657 181.433 455.853 169.07 460.19C157.404 464.284 153.713 478.039 141.62 482.015C131.542 485.328 118.316 482.356 115.874 470.591C113.944 461.293 119.82 450.788 123.603 442.743C126.657 436.248 136.089 423.955 131.219 416.429C124.567 406.149 117.568 395.991 113.657 384.261C110.079 373.527 108.02 355.223 121.671 350.672C137.037 345.55 153.743 350.922 169.297 347.66C193.289 342.63 155.666 326.053 150.883 321.801C142.248 314.125 150.288 306.397 156.567 299.863C160.797 295.462 171.171 284.524 178.561 286.167Z" fill="#27FB6C"/>
</g>
<g id="Frame 18">
<circle id="Ellipse 2_2" cx="255" cy="406" r="67" fill="url(#paint0_linear_19_10)"/>
<circle id="Ellipse 1_2" cx="244" cy="406" r="67" fill="url(#paint1_linear_19_10)"/>
</g>
<path id="BTC" d="M198.168 419.322H201.666V395.578H198.168V388.9H214.439C216.205 388.9 217.76 389.147 219.103 389.642C220.481 390.137 221.629 390.808 222.548 391.656C223.502 392.504 224.208 393.529 224.668 394.73C225.162 395.896 225.41 397.168 225.41 398.546V399.182C225.41 401.302 224.809 402.998 223.608 404.27C222.442 405.542 220.958 406.425 219.156 406.92V407.874C220.958 408.369 222.442 409.27 223.608 410.577C224.809 411.849 225.41 413.545 225.41 415.665V416.301C225.41 417.679 225.162 418.969 224.668 420.17C224.208 421.336 223.502 422.361 222.548 423.244C221.629 424.092 220.481 424.763 219.103 425.258C217.76 425.753 216.205 426 214.439 426H198.168V419.322ZM208.662 419.322H213.75C215.234 419.322 216.435 419.004 217.354 418.368C218.272 417.732 218.732 416.672 218.732 415.188V414.87C218.732 413.386 218.272 412.326 217.354 411.69C216.435 411.054 215.234 410.736 213.75 410.736H208.662V419.322ZM208.662 404.058H213.75C215.234 404.058 216.435 403.758 217.354 403.157C218.272 402.521 218.732 401.461 218.732 399.977V399.659C218.732 398.175 218.272 397.133 217.354 396.532C216.435 395.896 215.234 395.578 213.75 395.578H208.662V404.058ZM230.636 388.9H257.348V395.578H247.49V426H240.494V395.578H230.636V388.9ZM276.142 420.382C277.485 420.382 278.58 420.188 279.428 419.799C280.311 419.375 280.983 418.827 281.442 418.156C281.937 417.449 282.272 416.654 282.449 415.771C282.626 414.852 282.714 413.916 282.714 412.962V412.008H289.71V412.962C289.71 417.379 288.544 420.788 286.212 423.191C283.915 425.558 280.559 426.742 276.142 426.742C271.902 426.742 268.545 425.452 266.072 422.873C263.599 420.294 262.362 416.531 262.362 411.584V403.316C262.362 400.949 262.68 398.829 263.316 396.956C263.952 395.048 264.871 393.458 266.072 392.186C267.273 390.879 268.722 389.889 270.418 389.218C272.114 388.511 274.022 388.158 276.142 388.158C278.333 388.158 280.276 388.476 281.972 389.112C283.668 389.748 285.081 390.667 286.212 391.868C287.378 393.069 288.244 394.518 288.809 396.214C289.41 397.91 289.71 399.818 289.71 401.938V402.892H282.714V401.938C282.714 401.055 282.608 400.171 282.396 399.288C282.184 398.405 281.831 397.61 281.336 396.903C280.841 396.196 280.17 395.631 279.322 395.207C278.474 394.748 277.414 394.518 276.142 394.518C274.976 394.518 273.969 394.748 273.121 395.207C272.273 395.631 271.566 396.232 271.001 397.009C270.436 397.751 270.012 398.634 269.729 399.659C269.482 400.648 269.358 401.691 269.358 402.786V412.114C269.358 413.315 269.482 414.428 269.729 415.453C269.976 416.442 270.365 417.308 270.895 418.05C271.425 418.792 272.114 419.375 272.962 419.799C273.845 420.188 274.905 420.382 276.142 420.382Z" fill="black"/>
</g>
<rect id="Rectangle 27" x="36" y="180" width="427" height="139" rx="11" fill="#D9D9D9"/>
<path id="The BitVault" d="M130.046 238.9H146.678V243.058H140.54V262H136.184V243.058H130.046V238.9ZM155.268 262H151.11V238.9H155.268V248.272H155.862C156.28 247.282 156.896 246.523 157.71 245.995C158.524 245.445 159.525 245.17 160.713 245.17C161.527 245.17 162.275 245.302 162.957 245.566C163.639 245.83 164.233 246.226 164.739 246.754C165.245 247.282 165.641 247.964 165.927 248.8C166.213 249.614 166.356 250.582 166.356 251.704V262H162.198V252.694C162.198 251.528 161.912 250.615 161.34 249.955C160.79 249.273 159.987 248.932 158.931 248.932C157.699 248.932 156.775 249.35 156.159 250.186C155.565 251 155.268 252.1 155.268 253.486V262ZM174.913 255.169C174.935 255.653 175.045 256.104 175.243 256.522C175.463 256.918 175.749 257.27 176.101 257.578C176.475 257.864 176.893 258.095 177.355 258.271C177.839 258.425 178.345 258.502 178.873 258.502C179.907 258.502 180.699 258.326 181.249 257.974C181.799 257.6 182.195 257.16 182.437 256.654L186.001 258.634C185.803 259.052 185.528 259.492 185.176 259.954C184.824 260.394 184.362 260.801 183.79 261.175C183.24 261.549 182.558 261.857 181.744 262.099C180.952 262.341 180.017 262.462 178.939 262.462C177.707 262.462 176.585 262.264 175.573 261.868C174.561 261.472 173.681 260.9 172.933 260.152C172.207 259.404 171.635 258.491 171.217 257.413C170.821 256.335 170.623 255.114 170.623 253.75V253.552C170.623 252.298 170.832 251.154 171.25 250.12C171.69 249.086 172.284 248.206 173.032 247.48C173.78 246.754 174.649 246.193 175.639 245.797C176.651 245.379 177.729 245.17 178.873 245.17C180.281 245.17 181.491 245.423 182.503 245.929C183.515 246.413 184.351 247.04 185.011 247.81C185.671 248.558 186.155 249.394 186.463 250.318C186.771 251.22 186.925 252.1 186.925 252.958V255.169H174.913ZM178.84 248.932C177.784 248.932 176.926 249.207 176.266 249.757C175.606 250.285 175.177 250.901 174.979 251.605H182.701C182.569 250.835 182.151 250.197 181.447 249.691C180.765 249.185 179.896 248.932 178.84 248.932ZM210.606 257.842H212.784V243.058H210.606V238.9H220.737C221.837 238.9 222.805 239.054 223.641 239.362C224.499 239.67 225.214 240.088 225.786 240.616C226.38 241.144 226.82 241.782 227.106 242.53C227.414 243.256 227.568 244.048 227.568 244.906V245.302C227.568 246.622 227.194 247.678 226.446 248.47C225.72 249.262 224.796 249.812 223.674 250.12V250.714C224.796 251.022 225.72 251.583 226.446 252.397C227.194 253.189 227.568 254.245 227.568 255.565V255.961C227.568 256.819 227.414 257.622 227.106 258.37C226.82 259.096 226.38 259.734 225.786 260.284C225.214 260.812 224.499 261.23 223.641 261.538C222.805 261.846 221.837 262 220.737 262H210.606V257.842ZM217.14 257.842H220.308C221.232 257.842 221.98 257.644 222.552 257.248C223.124 256.852 223.41 256.192 223.41 255.268V255.07C223.41 254.146 223.124 253.486 222.552 253.09C221.98 252.694 221.232 252.496 220.308 252.496H217.14V257.842ZM217.14 248.338H220.308C221.232 248.338 221.98 248.151 222.552 247.777C223.124 247.381 223.41 246.721 223.41 245.797V245.599C223.41 244.675 223.124 244.026 222.552 243.652C221.98 243.256 221.232 243.058 220.308 243.058H217.14V248.338ZM232.165 258.04H237.709V249.592H232.561V245.632H241.867V258.04H246.619V262H232.165V258.04ZM242.89 240.781C242.89 241.221 242.802 241.639 242.626 242.035C242.472 242.409 242.252 242.739 241.966 243.025C241.68 243.289 241.339 243.509 240.943 243.685C240.569 243.839 240.173 243.916 239.755 243.916C239.315 243.916 238.908 243.839 238.534 243.685C238.16 243.509 237.83 243.289 237.544 243.025C237.258 242.739 237.027 242.409 236.851 242.035C236.697 241.639 236.62 241.221 236.62 240.781C236.62 240.341 236.697 239.934 236.851 239.56C237.027 239.164 237.258 238.834 237.544 238.57C237.83 238.284 238.16 238.064 238.534 237.91C238.908 237.734 239.315 237.646 239.755 237.646C240.173 237.646 240.569 237.734 240.943 237.91C241.339 238.064 241.68 238.284 241.966 238.57C242.252 238.834 242.472 239.164 242.626 239.56C242.802 239.934 242.89 240.341 242.89 240.781ZM251.612 245.632H256.463V238.9H260.621V245.632H266.528V249.592H260.621V257.05C260.621 257.71 260.918 258.04 261.512 258.04H265.934V262H259.004C258.256 262 257.64 261.758 257.156 261.274C256.694 260.79 256.463 260.174 256.463 259.426V249.592H251.612V245.632ZM270.498 238.9H274.986L279.507 259.822H280.101L284.622 238.9H289.11L283.896 262H275.712L270.498 238.9ZM303.079 259.624C302.639 260.658 302.023 261.395 301.231 261.835C300.439 262.253 299.515 262.462 298.459 262.462C297.469 262.462 296.534 262.275 295.654 261.901C294.796 261.527 294.037 260.977 293.377 260.251C292.717 259.525 292.189 258.645 291.793 257.611C291.419 256.577 291.232 255.4 291.232 254.08V253.552C291.232 252.254 291.419 251.088 291.793 250.054C292.167 249.02 292.673 248.14 293.311 247.414C293.949 246.688 294.686 246.138 295.522 245.764C296.38 245.368 297.293 245.17 298.261 245.17C299.427 245.17 300.362 245.368 301.066 245.764C301.792 246.16 302.364 246.776 302.782 247.612H303.376V245.632H307.534V257.05C307.534 257.71 307.831 258.04 308.425 258.04H309.052V262H306.214C305.466 262 304.85 261.78 304.366 261.34C303.904 260.9 303.673 260.328 303.673 259.624H303.079ZM299.383 258.502C300.593 258.502 301.561 258.106 302.287 257.314C303.013 256.5 303.376 255.4 303.376 254.014V253.618C303.376 252.232 303.013 251.143 302.287 250.351C301.561 249.537 300.593 249.13 299.383 249.13C298.173 249.13 297.205 249.537 296.479 250.351C295.753 251.143 295.39 252.232 295.39 253.618V254.014C295.39 255.4 295.753 256.5 296.479 257.314C297.205 258.106 298.173 258.502 299.383 258.502ZM323.78 245.632H327.938V262H323.78V259.624H323.186C322.46 261.516 320.898 262.462 318.5 262.462C317.686 262.462 316.927 262.33 316.223 262.066C315.519 261.802 314.903 261.395 314.375 260.845C313.847 260.295 313.429 259.613 313.121 258.799C312.835 257.963 312.692 256.984 312.692 255.862V245.632H316.85V255.004C316.85 256.17 317.125 257.083 317.675 257.743C318.225 258.381 319.05 258.7 320.15 258.7C321.404 258.7 322.317 258.304 322.889 257.512C323.483 256.698 323.78 255.598 323.78 254.212V245.632ZM332.799 258.04H338.541V242.86H332.997V238.9H342.699V258.04H348.045V262H332.799V258.04ZM352.642 245.632H357.493V238.9H361.651V245.632H367.558V249.592H361.651V257.05C361.651 257.71 361.948 258.04 362.542 258.04H366.964V262H360.034C359.286 262 358.67 261.758 358.186 261.274C357.724 260.79 357.493 260.174 357.493 259.426V249.592H352.642V245.632Z" fill="black"/>
</g>
<defs>
<filter id="filter0_f_19_10" x="3" y="178" width="493.875" height="455.55" filterUnits="userSpaceOnUse" color-interpolation-filters="sRGB">
<feFlood flood-opacity="0" result="BackgroundImageFix"/>
<feBlend mode="normal" in="SourceGraphic" in2="BackgroundImageFix" result="shape"/>
<feGaussianBlur stdDeviation="54" result="effect1_foregroundBlur_19_10"/>
</filter>
<linearGradient id="paint0_linear_19_10" x1="188" y1="406" x2="325" y2="406" gradientUnits="userSpaceOnUse">
<stop stop-color="#00AD30"/>
<stop offset="1" stop-color="#0074B6"/>
</linearGradient>
<linearGradient id="paint1_linear_19_10" x1="177" y1="406" x2="314" y2="406" gradientUnits="userSpaceOnUse">
<stop stop-color="#28FF64"/>
<stop offset="1" stop-color="#00A3FF"/>
</linearGradient>
<clipPath id="clip0_19_10">
<rect width="500" height="500" fill="white"/>
</clipPath>
</defs>
</svg>